<?xml version="1.0" standalone="no"?>
<!DOCTYPE svg PUBLIC "-//W3C//DTD SVG 20010904//EN"
 "http://www.w3.org/TR/2001/REC-SVG-20010904/DTD/svg10.dtd">
<svg version="1.0" xmlns="http://www.w3.org/2000/svg"
 width="500.000000pt" height="500.000000pt" viewBox="0 0 500.000000 500.000000"
 preserveAspectRatio="xMidYMid meet">
<metadata>
Created by potrace 1.16, written by Peter Selinger 2001-2019
</metadata>
<g transform="translate(0.000000,500.000000) scale(0.100000,-0.100000)"
fill="#1A3434" stroke="none">
<path d="M3725 4644 c-177 -19 -307 -53 -515 -136 -366 -147 -640 -327 -1121
-735 l-86 -73 -159 19 c-405 51 -642 53 -776 7 -176 -59 -409 -215 -617 -412
-90 -86 -94 -91 -98 -140 -6 -61 17 -118 57 -143 15 -9 188 -70 384 -135 196
-66 356 -124 356 -130 0 -5 -29 -56 -66 -112 -36 -57 -68 -119 -71 -137 -12
-76 -6 -84 477 -567 503 -504 495 -497 582 -470 24 7 57 28 75 47 30 32 33 40
33 101 l0 66 -410 411 c-367 368 -408 412 -398 430 11 20 36 56 143 200 212
285 594 664 1000 990 415 333 783 527 1130 596 79 16 667 20 682 6 14 -15 10
-603 -6 -682 -69 -347 -263 -715 -596 -1130 -247 -308 -591 -670 -810 -856
-142 -121 -321 -252 -433 -318 -75 -44 -102 -66 -119 -96 -30 -52 -30 -112 -1
-155 38 -55 73 -75 131 -75 47 0 62 6 158 68 58 37 110 67 115 67 6 0 64 -160
130 -356 65 -196 126 -369 135 -384 25 -40 82 -63 143 -57 49 4 54 8 140 98
195 206 350 437 414 617 26 75 27 83 26 282 -1 188 -15 372 -45 577 l-10 73
118 142 c337 406 458 579 601 863 53 106 145 339 175 445 47 162 52 221 52
610 -1 441 -4 469 -53 522 -24 25 -51 42 -77 49 -40 9 -716 21 -790 13z
m-2058 -1210 l41 -6 -150 -162 c-83 -88 -162 -177 -176 -197 l-27 -37 -267 91
c-148 50 -268 93 -268 96 1 3 38 34 83 68 94 70 224 143 276 154 39 9 420 3
488 -7z m1776 -2039 l2 -230 -48 -89 c-43 -81 -164 -254 -178 -256 -3 0 -46
121 -96 268 l-91 268 33 22 c18 13 106 92 196 176 l164 152 8 -40 c5 -23 10
-144 10 -271z"/>
<path d="M2640 3330 c-316 -41 -549 -305 -550 -621 0 -218 139 -448 329 -543
195 -99 388 -100 579 -4 228 114 362 368 331 622 -30 240 -189 439 -413 516
-44 15 -219 46 -221 39 0 -1 -25 -5 -55 -9z m194 -330 c63 -27 131 -92 161
-155 35 -75 35 -187 1 -262 -30 -64 -87 -122 -152 -154 -69 -34 -199 -34 -262
-1 -62 33 -114 84 -148 144 -26 47 -29 63 -29 138 0 70 4 94 25 135 32 64 89
121 153 151 68 31 183 33 251 4z"/>
<path d="M755 2291 c-47 -29 -213 -203 -224 -234 -29 -77 0 -158 69 -194 85
-45 139 -22 273 116 101 104 125 150 112 211 -8 34 -48 91 -78 107 -34 19
-117 16 -152 -6z"/>
<path d="M1206 1855 c-16 -8 -136 -122 -266 -253 -251 -251 -269 -275 -257
-349 10 -60 46 -101 101 -118 94 -28 101 -23 375 248 133 133 249 256 257 274
28 65 6 143 -53 187 -35 26 -119 32 -157 11z"/>
<path d="M1655 1416 c-16 -8 -139 -124 -272 -258 -271 -273 -276 -280 -248
-374 17 -55 58 -91 118 -101 75 -12 97 5 359 267 264 264 269 271 255 355 -15
93 -125 150 -212 111z"/>
<path d="M2112 979 c-40 -12 -202 -164 -244 -228 -47 -75 -30 -160 42 -209 30
-20 45 -23 98 -20 l63 4 105 104 c120 119 134 141 134 204 0 60 -15 90 -60
121 -43 30 -91 38 -138 24z"/>
</g>
</svg>
